<svg width="80" height="80" viewBox="0 0 80 80" fill="none" xmlns="http://www.w3.org/2000/svg">
<path d="M20.5002 55.5005L38.5002 37.5005M24.0002 59.0005L42.0002 41.0005M43.0002 34.0005L54.0002 23.0005V18.5005L60.5002 16.5005L63.0002 19.0005L61.0002 25.5005H56.0002L45.5002 36.5005L48.5002 39.5005L25.5002 63.0005C25.5002 63.0005 22.3391 64.1572 20.5002 63.5005C18.1598 62.6646 16.7862 61.3582 16.0002 59.0005C15.4445 57.3333 16.0002 54.5005 16.0002 54.5005L39.5002 31.0005L43.0002 34.0005ZM20.0002 27.5005H27.5002V20.5005L21.5002 13.5005H29.0002C29.0002 13.5005 35.8513 17.529 37.5002 21.5005C38.848 24.7465 37.5002 30.5005 37.5002 30.5005L39.0002 31.5005L31.5002 39.0005L29.5002 37.0005C29.5002 37.0005 25.13 37.747 22.5002 37.0005C17.584 35.6048 13.5002 27.5005 13.5002 27.5005V21.5005L20.0002 27.5005ZM40.5002 48.0005L54.0002 61.5005C54.0002 61.5005 59.4463 63.0976 61.5002 61.0005C63.2973 59.1657 62.5002 54.5005 62.5002 54.5005L48.0002 40.0005L40.5002 48.0005Z" stroke="url(#paint0_linear_117_5408)" stroke-width="2" stroke-linecap="round" stroke-linejoin="round"/>
<defs>
<linearGradient id="paint0_linear_117_5408" x1="13.5002" y1="20.5601" x2="63.591" y2="63.0051" gradientUnits="userSpaceOnUse">
<stop stop-color="#1E74EC"/>
<stop offset="1" stop-color="#002984"/>
</linearGradient>
</defs>
</svg>
