<svg width="80" height="80" viewBox="0 0 80 80" fill="none" xmlns="http://www.w3.org/2000/svg">
<path d="M9 51.0007H16M32 51.0007H39M55 51.0007H62M32 11.0007H39M18 69.0007H25M41 69.0007H48M64 69.0007H71M41 29.0007H48M40 34.0007V39.0007V46.0007M17 46.0007V39.0007H63V46.0007M10 74.0007H24C24.5523 74.0007 25 73.553 25 73.0007V47.0007C25 46.4484 24.5523 46.0007 24 46.0007H10C9.44772 46.0007 9 46.4484 9 47.0007V73.0007C9 73.553 9.44772 74.0007 10 74.0007ZM33 74.0007H47C47.5523 74.0007 48 73.553 48 73.0007V47.0007C48 46.4484 47.5523 46.0007 47 46.0007H33C32.4477 46.0007 32 46.4484 32 47.0007V73.0007C32 73.553 32.4477 74.0007 33 74.0007ZM56 74.0007H70C70.5523 74.0007 71 73.553 71 73.0007V47.0007C71 46.4484 70.5523 46.0007 70 46.0007H56C55.4477 46.0007 55 46.4484 55 47.0007V73.0007C55 73.553 55.4477 74.0007 56 74.0007ZM33 34.0007H47C47.5523 34.0007 48 33.553 48 33.0007V7.00073C48 6.44845 47.5523 6.00073 47 6.00073H33C32.4477 6.00073 32 6.44845 32 7.00073V33.0007C32 33.553 32.4477 34.0007 33 34.0007Z" stroke="url(#paint0_linear_117_5443)" stroke-width="2" stroke-linecap="round" stroke-linejoin="round"/>
<defs>
<linearGradient id="paint0_linear_117_5443" x1="9" y1="15.5632" x2="75.7857" y2="67.893" gradientUnits="userSpaceOnUse">
<stop stop-color="#1E74EC"/>
<stop offset="1" stop-color="#002984"/>
</linearGradient>
</defs>
</svg>
