<svg width="32" height="32" viewBox="0 0 32 32" fill="none" xmlns="http://www.w3.org/2000/svg">
<rect width="32" height="32" fill="#E5E5E5"/>
<g id="UST RUS CAREERpage  1920">
<g id="container" clip-path="url(#clip0_78_2505)">
<rect width="1920" height="4377" transform="translate(-487 -2177)" fill="white"/>
<g id="info block">
<g id="list">
<g id="vacans 1">
<g id="social">
<g id="entypo-social:linkedin-with-circle" clip-path="url(#clip1_78_2505)">
<circle id="Ellipse 76" cx="16" cy="16" r="16" fill="#1E74EC"/>
<path id="Vector" d="M6 10C6 9.46957 6.21071 8.96086 6.58579 8.58579C6.96086 8.21071 7.46957 8 8 8H24C24.5304 8 25.0391 8.21071 25.4142 8.58579C25.7893 8.96086 26 9.46957 26 10V22C26 22.5304 25.7893 23.0391 25.4142 23.4142C25.0391 23.7893 24.5304 24 24 24H8C7.46957 24 6.96086 23.7893 6.58579 23.4142C6.21071 23.0391 6 22.5304 6 22V10ZM9.519 10L16 15.671L22.481 10H9.52H9.519ZM24 11.329L16.659 17.753C16.4766 17.9128 16.2424 18.0009 16 18.0009C15.7576 18.0009 15.5234 17.9128 15.341 17.753L8 11.329V22H24V11.329Z" fill="white"/>
</g>
</g>
</g>
</g>
</g>
</g>
</g>
<defs>
<clipPath id="clip0_78_2505">
<rect width="1920" height="4377" fill="white" transform="translate(-487 -2177)"/>
</clipPath>
<clipPath id="clip1_78_2505">
<rect width="32" height="32" fill="white"/>
</clipPath>
</defs>
</svg>
