<svg width="80" height="80" viewBox="0 0 80 80" fill="none" xmlns="http://www.w3.org/2000/svg">
<path d="M54.9562 65.2585H75.358C75.8641 59.86 75.2062 49.063 68.5259 49.063H54.1025C50.8486 49.063 48.9894 51.0185 47.9272 53.6903M54.9562 65.2585C55.0382 66.9637 54.9839 68.5821 54.8617 69.8857H26.015C26.015 68.5616 26.015 66.9481 26.1179 65.2585M54.9562 65.2585C54.6988 59.9023 53.0967 53.6903 48.0295 53.6903H47.9272M47.9272 53.6903H33.6062C32.9257 53.6903 32.3061 53.7758 31.7421 53.9356M31.7421 53.9356C30.7198 51.144 28.9477 49.063 26.015 49.063H11.5916C4.00037 49.063 4.00037 59.7058 4.00037 65.2585H26.1179M31.7421 53.9356C27.5151 55.1327 26.4079 60.4977 26.1179 65.2585M26.6514 36.7083C26.6514 41.7684 22.5131 45.8703 17.4082 45.8703C12.3033 45.8703 8.16494 41.7684 8.16494 36.7083C8.16494 31.6483 12.3033 27.5463 17.4082 27.5463C22.5131 27.5463 26.6514 31.6483 26.6514 36.7083ZM49.7596 41.2893C49.7596 46.3493 45.6212 50.4513 40.5163 50.4513C35.4114 50.4513 31.2731 46.3493 31.2731 41.2893C31.2731 36.2293 35.4114 32.1273 40.5163 32.1273C45.6212 32.1273 49.7596 36.2293 49.7596 41.2893ZM71.3271 36.7083C71.3271 41.7684 67.1888 45.8703 62.0839 45.8703C56.979 45.8703 52.8406 41.7684 52.8406 36.7083C52.8406 31.6483 56.979 27.5463 62.0839 27.5463C67.1888 27.5463 71.3271 31.6483 71.3271 36.7083ZM38.0308 17.1227H31.6657C31.6172 17.1227 31.597 17.1848 31.6363 17.2134L36.7857 20.9546C36.8032 20.9674 36.8106 20.99 36.8039 21.0107L34.837 27.0642C34.822 27.1103 34.8748 27.1487 34.9141 27.1202L40.0635 23.3789C40.0811 23.3662 40.1049 23.3662 40.1225 23.3789L45.2719 27.1202C45.3112 27.1487 45.364 27.1103 45.349 27.0642L43.3821 21.0107C43.3754 20.99 43.3828 20.9674 43.4003 20.9546L48.5497 17.2134C48.589 17.1848 48.5688 17.1227 48.5203 17.1227H42.1553C42.1335 17.1227 42.1143 17.1087 42.1076 17.088L40.1407 11.0345C40.1257 10.9884 40.0603 10.9884 40.0453 11.0345L38.0784 17.088C38.0717 17.1087 38.0525 17.1227 38.0308 17.1227Z" stroke="url(#paint0_linear_6992_1417)" stroke-width="1.95867"/>
<defs>
<linearGradient id="paint0_linear_6992_1417" x1="4.00037" y1="19.2807" x2="63.5102" y2="81.3696" gradientUnits="userSpaceOnUse">
<stop stop-color="#1E74EC"/>
<stop offset="1" stop-color="#002984"/>
</linearGradient>
</defs>
</svg>
